<svg width="502" height="869" viewBox="0 0 502 869" fill="none" xmlns="http://www.w3.org/2000/svg">
<path d="M249.801 0C249.249 5.43241 248.265 10.2241 246.551 15.4375C246.094 16.8485 245.638 18.26 245.184 19.6719C244.952 20.3892 244.72 21.1066 244.482 21.8457C243.398 25.2744 242.417 28.7314 241.426 32.1875C239.537 38.7287 237.425 45.1778 235.238 51.625C232.859 58.6601 230.728 65.6883 228.887 72.8867C227.52 78.1669 225.962 83.3921 224.426 88.625C223.97 90.1811 223.97 90.1811 223.506 91.7686C222.348 95.7237 221.189 99.6786 220.027 103.632C213.51 125.852 207.898 148.316 202.426 170.812C202.257 171.506 202.088 172.2 201.913 172.914C200.046 180.581 198.294 188.251 196.801 196C196.505 197.433 196.207 198.865 195.906 200.297C193.476 212.03 191.448 223.814 189.552 235.644C189.353 236.87 189.154 238.096 188.949 239.359C188.776 240.447 188.602 241.535 188.423 242.655C187.801 246 187.801 246 186.858 249.565C185.34 255.493 184.6 261.554 183.742 267.605C183.551 268.934 183.359 270.262 183.167 271.59C182.663 275.082 182.164 278.574 181.666 282.066C181.169 285.546 180.667 289.026 180.166 292.506C179.392 297.882 178.622 303.258 177.856 308.635C177.21 313.162 176.555 317.687 175.885 322.211C174.516 331.488 173.331 340.698 172.738 350.062C172.584 352.271 172.428 354.479 172.27 356.688C172.156 358.285 172.156 358.285 172.039 359.914C171.632 365.192 171.085 370.456 170.498 375.717C168.909 390.507 168.614 405.304 168.616 420.167C168.613 423.194 168.595 426.221 168.576 429.248C168.537 442.636 169.062 455.573 172.926 468.5C173.135 469.204 173.345 469.909 173.561 470.634C178.751 486.978 188.527 498.934 203.551 507.188C210.101 510.29 217.384 511.917 224.399 513.637C243.231 518.573 259.56 531.622 269.801 548C272.781 553.179 275.4 558.531 277.801 564C278.137 564.758 278.474 565.515 278.821 566.296C281.532 572.691 283.134 579.074 284.488 585.875C284.7 586.874 284.912 587.873 285.131 588.902C291.718 621.11 288.016 655.708 283.801 688C283.59 689.638 283.38 691.277 283.169 692.916C282.543 697.759 281.897 702.599 281.238 707.438C281.139 708.171 281.039 708.904 280.936 709.66C279.581 719.519 277.837 729.256 275.801 739C275.408 740.942 275.015 742.885 274.623 744.827C266.298 786.091 257.446 827.529 245.801 868C242.593 869.041 241.077 869.103 237.875 867.91C210.913 853.201 186.218 834.606 163.754 813.73C161.825 811.938 159.878 810.178 157.91 808.426C140.936 793.245 126.03 775.823 112.176 757.788C111.27 756.61 110.36 755.435 109.445 754.263C95.6432 736.576 82.7942 717.566 71.8009 698C71.3615 697.22 70.922 696.44 70.4693 695.636C34.3246 631.11 11.9477 562.522 4.02089 489.012C3.8027 487.017 3.57307 485.023 3.34333 483.029C-0.278496 451.468 -1.499 418.555 2.43269 386.978C2.7937 384.058 3.1247 381.135 3.44986 378.211C6.09231 354.507 9.9352 331.32 15.2384 308.062C15.4255 307.236 15.6127 306.409 15.8056 305.557C18.3163 294.524 21.256 283.745 24.8009 273C25.1511 271.923 25.5013 270.845 25.8621 269.736C31.3244 253.108 37.7501 237.012 44.8009 221C45.2198 220.036 45.6387 219.072 46.0704 218.078C52.2212 203.941 59.204 190.411 66.8009 177C67.2021 176.281 67.6033 175.562 68.0167 174.821C73.5142 164.984 79.6292 155.568 85.8634 146.188C86.2388 145.621 86.6143 145.055 87.0011 144.471C92.3418 136.432 97.9462 128.67 103.801 121C104.683 119.826 105.565 118.652 106.445 117.477C118.843 101.17 132.607 86.1306 147.051 71.625C147.795 70.8757 148.54 70.1265 149.307 69.3545C153.977 64.6981 158.798 60.2943 163.801 56C164.849 55.0744 165.896 54.1474 166.941 53.2188C176.792 44.5649 187.208 36.718 197.801 29C198.727 28.3249 198.727 28.3249 199.672 27.6362C237.901 0 237.901 0 249.801 0Z" fill="#758D6E"/>
<path d="M249.801 0C249.249 5.43241 248.265 10.2241 246.551 15.4375C246.094 16.8485 245.638 18.26 245.184 19.6719C244.952 20.3892 244.72 21.1066 244.482 21.8457C243.398 25.2744 242.417 28.7314 241.426 32.1875C239.537 38.7287 237.425 45.1778 235.238 51.625C232.859 58.6601 230.728 65.6883 228.887 72.8867C227.52 78.1669 225.962 83.3921 224.426 88.625C223.97 90.1811 223.97 90.1811 223.506 91.7686C222.348 95.7237 221.189 99.6786 220.027 103.632C213.51 125.852 207.898 148.316 202.426 170.812C202.257 171.506 202.088 172.2 201.913 172.914C200.046 180.581 198.294 188.251 196.801 196C196.505 197.433 196.207 198.865 195.906 200.297C193.476 212.03 191.448 223.814 189.552 235.644C189.353 236.87 189.154 238.096 188.949 239.359C188.776 240.447 188.602 241.535 188.423 242.655C187.801 246 187.801 246 186.858 249.565C185.34 255.493 184.6 261.554 183.742 267.605C183.551 268.934 183.359 270.262 183.167 271.59C182.663 275.082 182.164 278.574 181.666 282.066C181.169 285.546 180.667 289.026 180.166 292.506C179.392 297.882 178.622 303.258 177.856 308.635C177.21 313.162 176.555 317.687 175.885 322.211C174.516 331.488 173.331 340.698 172.738 350.062C172.584 352.271 172.428 354.479 172.27 356.688C172.156 358.285 172.156 358.285 172.039 359.914C171.632 365.192 171.085 370.456 170.498 375.717C168.909 390.507 168.614 405.304 168.616 420.167C168.613 423.194 168.595 426.221 168.576 429.248C168.537 442.636 169.062 455.573 172.926 468.5C173.135 469.204 173.345 469.909 173.561 470.634C178.751 486.978 188.527 498.934 203.551 507.188C210.101 510.29 217.384 511.917 224.399 513.637C243.231 518.573 259.56 531.622 269.801 548C272.781 553.179 275.4 558.531 277.801 564C278.137 564.758 278.474 565.515 278.821 566.296C281.532 572.691 283.134 579.074 284.488 585.875C284.7 586.874 284.912 587.873 285.131 588.902C291.718 621.11 288.016 655.708 283.801 688C283.59 689.638 283.38 691.277 283.169 692.916C282.543 697.759 281.897 702.599 281.238 707.438C281.139 708.171 281.039 708.904 280.936 709.66C279.581 719.519 277.837 729.256 275.801 739C275.408 740.942 275.015 742.885 274.623 744.827C266.298 786.091 257.446 827.529 245.801 868C242.593 869.041 241.077 869.103 237.875 867.91C210.913 853.201 186.218 834.606 163.754 813.73C161.825 811.938 159.878 810.178 157.91 808.426C140.936 793.245 126.03 775.823 112.176 757.788C111.27 756.61 110.36 755.435 109.445 754.263C95.6432 736.576 82.7942 717.566 71.8009 698C71.3615 697.22 70.922 696.44 70.4693 695.636C34.3246 631.11 11.9477 562.522 4.02089 489.012C3.8027 487.017 3.57307 485.023 3.34333 483.029C-0.278496 451.468 -1.499 418.555 2.43269 386.978C2.7937 384.058 3.1247 381.135 3.44986 378.211C6.09231 354.507 9.9352 331.32 15.2384 308.062C15.4255 307.236 15.6127 306.409 15.8056 305.557C18.3163 294.524 21.256 283.745 24.8009 273C25.1511 271.923 25.5013 270.845 25.8621 269.736C31.3244 253.108 37.7501 237.012 44.8009 221C45.2198 220.036 45.6387 219.072 46.0704 218.078C52.2212 203.941 59.204 190.411 66.8009 177C67.2021 176.281 67.6033 175.562 68.0167 174.821C73.5142 164.984 79.6292 155.568 85.8634 146.188C86.2388 145.621 86.6143 145.055 87.0011 144.471C92.3418 136.432 97.9462 128.67 103.801 121C104.683 119.826 105.565 118.652 106.445 117.477C118.843 101.17 132.607 86.1306 147.051 71.625C147.795 70.8757 148.54 70.1265 149.307 69.3545C153.977 64.6981 158.798 60.2943 163.801 56C164.849 55.0744 165.896 54.1474 166.941 53.2188C176.792 44.5649 187.208 36.718 197.801 29C198.727 28.3249 198.727 28.3249 199.672 27.6362C237.901 0 237.901 0 249.801 0Z" fill="#7F9476"/>
<path d="M252.48 868.292C253.039 863.119 254.003 858.512 255.647 853.512L255.648 853.51L257.015 849.274C257.247 848.557 257.479 847.84 257.717 847.101L257.718 847.098C258.804 843.661 259.787 840.197 260.778 836.744C262.664 830.214 264.773 823.772 266.958 817.328C269.341 810.283 271.476 803.243 273.321 796.031C274.344 792.079 275.474 788.156 276.624 784.233L277.777 780.309C278.232 778.753 278.233 778.753 278.698 777.165C279.856 773.21 281.014 769.255 282.176 765.302C288.697 743.07 294.31 720.596 299.783 698.099C299.952 697.405 300.121 696.712 300.295 695.997C302.163 688.326 303.918 680.647 305.414 672.888C305.709 671.458 306.006 670.028 306.306 668.599V668.598C308.739 656.854 310.768 645.062 312.665 633.229C312.864 632.003 313.062 630.777 313.267 629.514L313.268 629.513C313.441 628.429 313.613 627.346 313.791 626.229C314.412 622.898 314.409 622.91 315.349 619.356L315.35 619.353C316.876 613.391 317.62 607.295 318.476 601.259C318.667 599.931 318.859 598.603 319.051 597.274C319.555 593.783 320.054 590.29 320.552 586.798L322.052 576.358C322.826 570.983 323.596 565.606 324.363 560.229C325.009 555.703 325.664 551.178 326.333 546.655V546.654C327.702 537.374 328.889 528.15 329.484 518.766C329.638 516.558 329.794 514.349 329.953 512.142V512.141L330.183 508.914C330.59 503.645 331.135 498.39 331.722 493.132V493.129C333.214 479.238 333.567 465.346 333.604 451.413L333.608 448.626C333.61 445.6 333.628 442.575 333.647 439.548V437.039C333.608 424.525 332.92 412.339 329.277 400.15C329.067 399.446 328.857 398.741 328.641 398.016L328.639 398.008C323.411 381.542 313.55 369.483 298.413 361.167L298.4 361.16L298.386 361.153C291.782 358.025 284.444 356.387 277.453 354.673H277.452C258.762 349.774 242.539 336.82 232.357 320.544H232.356C229.387 315.384 226.776 310.049 224.38 304.592L224.379 304.59L223.36 302.294C220.67 295.946 219.076 289.604 217.725 282.82L217.724 282.814C217.512 281.817 217.301 280.819 217.082 279.791V279.79C210.515 247.675 214.202 213.154 218.418 180.857V180.856L219.05 175.941C219.363 173.521 219.68 171.1 220.002 168.681L220.98 161.423L221.283 159.201C222.636 149.355 224.378 139.63 226.412 129.896L226.413 129.893C226.806 127.95 227.199 126.007 227.59 124.064C235.898 82.8908 244.727 41.5574 256.33 1.18945C257.788 0.727472 258.846 0.49686 259.886 0.5C260.975 0.503336 262.084 0.761874 263.646 1.3418C290.551 16.025 315.2 34.5857 337.628 55.4287C339.078 56.7755 340.537 58.104 342.007 59.4238L343.48 60.7402C360.421 75.8924 375.306 93.2873 389.15 111.31L389.151 111.311C390.058 112.489 390.969 113.665 391.884 114.838H391.885C405.242 131.955 417.704 150.31 428.452 169.207L429.487 171.038C429.926 171.818 430.365 172.599 430.818 173.402H430.819C466.931 237.871 489.286 306.395 497.206 379.835L497.54 382.829C497.653 383.827 497.768 384.824 497.883 385.821C501.502 417.358 502.72 450.229 498.794 481.753V481.754C498.433 484.677 498.101 487.603 497.776 490.527C495.135 514.214 491.296 537.381 485.998 560.619V560.62L485.43 563.125C482.923 574.144 479.987 584.908 476.448 595.637L476.447 595.639C476.097 596.716 475.747 597.794 475.386 598.903C469.93 615.511 463.51 631.591 456.464 647.592L456.463 647.594L455.194 650.516C449.052 664.633 442.077 678.147 434.487 691.547L434.486 691.55C434.085 692.269 433.684 692.988 433.271 693.729L433.27 693.728C428.468 702.319 423.193 710.592 417.774 718.81L415.443 722.329C415.067 722.895 414.692 723.462 414.305 724.045C408.972 732.073 403.374 739.826 397.525 747.489L397.523 747.492C396.641 748.665 395.759 749.839 394.879 751.014C383.274 766.279 370.465 780.436 357.016 794.091L354.318 796.815C353.574 797.564 352.829 798.313 352.063 799.084C347.403 803.73 342.591 808.125 337.596 812.413L337.591 812.418C336.544 813.343 335.497 814.27 334.452 815.198C324.619 823.837 314.218 831.673 303.627 839.389C302.701 840.063 302.701 840.064 301.757 840.752C282.627 854.582 273.103 861.465 266.872 864.9C263.77 866.61 261.51 867.451 259.306 867.87C257.23 868.265 255.184 868.29 252.48 868.292Z" fill="#5F775C" stroke="#536B52"/>
</svg>
